<svg width="106" height="45" viewBox="0 0 106 45" fill="none" xmlns="http://www.w3.org/2000/svg">
<path d="M0 45H106V0H14L0 14.5V45Z" fill="#356FB0"/>
<path d="M40.7612 26.2861V28H35.085V26.2861H40.7612ZM35.8027 17.3359V28H33.6055V17.3359H35.8027ZM40.0215 21.6792V23.3491H35.085V21.6792H40.0215ZM40.7539 17.3359V19.0571H35.085V17.3359H40.7539ZM43.9766 21.7671V28H41.8672V20.0752H43.8447L43.9766 21.7671ZM43.6689 23.7593H43.0977C43.0977 23.1733 43.1733 22.646 43.3247 22.1772C43.4761 21.7036 43.6885 21.3008 43.9619 20.9688C44.2354 20.6318 44.5601 20.3755 44.936 20.1997C45.3169 20.019 45.7417 19.9287 46.2104 19.9287C46.5815 19.9287 46.9209 19.9824 47.2285 20.0898C47.5361 20.1973 47.7998 20.3682 48.0195 20.6025C48.2441 20.8369 48.415 21.147 48.5322 21.5327C48.6543 21.9185 48.7153 22.3896 48.7153 22.9463V28H46.5913V22.939C46.5913 22.5874 46.5425 22.314 46.4448 22.1187C46.3472 21.9233 46.2031 21.7866 46.0127 21.7085C45.8271 21.6255 45.5977 21.584 45.3242 21.584C45.041 21.584 44.7944 21.6401 44.5845 21.7524C44.3794 21.8647 44.2085 22.021 44.0718 22.2212C43.9399 22.4165 43.8398 22.646 43.7715 22.9097C43.7031 23.1733 43.6689 23.4565 43.6689 23.7593ZM54.2012 20.0752V21.5693H49.5869V20.0752H54.2012ZM50.7295 18.1196H52.8389V25.6123C52.8389 25.8418 52.8682 26.0176 52.9268 26.1396C52.9902 26.2617 53.083 26.3472 53.2051 26.396C53.3271 26.4399 53.481 26.4619 53.6665 26.4619C53.7983 26.4619 53.9155 26.457 54.0181 26.4473C54.1255 26.4326 54.2158 26.418 54.2891 26.4033L54.2964 27.9561C54.1157 28.0146 53.9204 28.061 53.7104 28.0952C53.5005 28.1294 53.2686 28.1465 53.0146 28.1465C52.5508 28.1465 52.1455 28.0708 51.7988 27.9194C51.457 27.7632 51.1934 27.5142 51.0078 27.1724C50.8223 26.8306 50.7295 26.3813 50.7295 25.8247V18.1196ZM57.5117 21.8037V28H55.4023V20.0752H57.3872L57.5117 21.8037ZM59.8994 20.0239L59.8628 21.9795C59.7603 21.9648 59.6357 21.9526 59.4893 21.9429C59.3477 21.9282 59.2183 21.9209 59.1011 21.9209C58.8032 21.9209 58.5444 21.96 58.3247 22.0381C58.1099 22.1113 57.9292 22.2212 57.7827 22.3677C57.6411 22.5142 57.5337 22.6924 57.4604 22.9023C57.3921 23.1123 57.353 23.3516 57.3433 23.6201L56.9185 23.4883C56.9185 22.9756 56.9697 22.5044 57.0723 22.0747C57.1748 21.6401 57.3237 21.2617 57.519 20.9395C57.7192 20.6172 57.9634 20.3682 58.2515 20.1924C58.5396 20.0166 58.8691 19.9287 59.2402 19.9287C59.3574 19.9287 59.4771 19.9385 59.5991 19.958C59.7212 19.9727 59.8213 19.9946 59.8994 20.0239ZM64.9238 26.2129V22.6826C64.9238 22.4287 64.8823 22.2114 64.7993 22.0308C64.7163 21.8452 64.5869 21.7012 64.4111 21.5986C64.2402 21.4961 64.0181 21.4448 63.7446 21.4448C63.5103 21.4448 63.3076 21.4863 63.1367 21.5693C62.9658 21.6475 62.834 21.7622 62.7412 21.9136C62.6484 22.0601 62.6021 22.2334 62.6021 22.4336H60.4927C60.4927 22.0967 60.5708 21.7769 60.7271 21.4741C60.8833 21.1714 61.1104 20.9053 61.4082 20.6758C61.7061 20.4414 62.0601 20.2583 62.4702 20.1265C62.8853 19.9946 63.3491 19.9287 63.8618 19.9287C64.4771 19.9287 65.0239 20.0312 65.5024 20.2363C65.981 20.4414 66.3569 20.749 66.6304 21.1592C66.9087 21.5693 67.0479 22.082 67.0479 22.6973V26.0884C67.0479 26.5229 67.0747 26.8794 67.1284 27.1577C67.1821 27.4312 67.2603 27.6704 67.3628 27.8755V28H65.2314C65.1289 27.7852 65.0508 27.5166 64.9971 27.1943C64.9482 26.8672 64.9238 26.54 64.9238 26.2129ZM65.2021 23.1733L65.2168 24.3672H64.0376C63.7593 24.3672 63.5176 24.3989 63.3125 24.4624C63.1074 24.5259 62.939 24.6162 62.8071 24.7334C62.6753 24.8457 62.5776 24.9775 62.5142 25.1289C62.4556 25.2803 62.4263 25.4463 62.4263 25.627C62.4263 25.8076 62.4678 25.9712 62.5508 26.1177C62.6338 26.2593 62.7534 26.3716 62.9097 26.4546C63.0659 26.5327 63.249 26.5718 63.459 26.5718C63.7764 26.5718 64.0522 26.5083 64.2866 26.3813C64.521 26.2544 64.7017 26.0981 64.8286 25.9126C64.9604 25.7271 65.0288 25.5513 65.0337 25.3853L65.5903 26.2788C65.5122 26.479 65.4048 26.6865 65.2681 26.9014C65.1362 27.1162 64.9678 27.3188 64.7627 27.5093C64.5576 27.6948 64.311 27.8486 64.0229 27.9707C63.7349 28.0879 63.3931 28.1465 62.9976 28.1465C62.4946 28.1465 62.0381 28.0464 61.6279 27.8462C61.2227 27.6411 60.9004 27.3604 60.6611 27.0039C60.4268 26.6426 60.3096 26.2324 60.3096 25.7734C60.3096 25.3584 60.3877 24.9897 60.5439 24.6675C60.7002 24.3452 60.9297 24.0742 61.2324 23.8545C61.54 23.6299 61.9233 23.4614 62.3823 23.3491C62.8413 23.2319 63.3735 23.1733 63.979 23.1733H65.2021ZM70.7832 21.8037V28H68.6738V20.0752H70.6587L70.7832 21.8037ZM73.1709 20.0239L73.1343 21.9795C73.0317 21.9648 72.9072 21.9526 72.7607 21.9429C72.6191 21.9282 72.4897 21.9209 72.3726 21.9209C72.0747 21.9209 71.8159 21.96 71.5962 22.0381C71.3813 22.1113 71.2007 22.2212 71.0542 22.3677C70.9126 22.5142 70.8052 22.6924 70.7319 22.9023C70.6636 23.1123 70.6245 23.3516 70.6147 23.6201L70.1899 23.4883C70.1899 22.9756 70.2412 22.5044 70.3438 22.0747C70.4463 21.6401 70.5952 21.2617 70.7905 20.9395C70.9907 20.6172 71.2349 20.3682 71.5229 20.1924C71.811 20.0166 72.1406 19.9287 72.5117 19.9287C72.6289 19.9287 72.7485 19.9385 72.8706 19.958C72.9927 19.9727 73.0928 19.9946 73.1709 20.0239Z" fill="white"/>
</svg>
