<svg width="162" height="55" viewBox="0 0 162 55" fill="none" xmlns="http://www.w3.org/2000/svg">
<path d="M0 0H162V55H19.5517L0 40.3333V0Z" fill="#356FB0"/>
<path d="M70.043 30.2861V32H64.6743V30.2861H70.043ZM65.3848 21.3359V32H63.1875V21.3359H65.3848ZM70.834 28.1182V27.9644C70.834 27.3833 70.917 26.8486 71.083 26.3604C71.2491 25.8672 71.4908 25.4399 71.8081 25.0786C72.1255 24.7173 72.5161 24.4365 72.98 24.2363C73.4439 24.0312 73.9761 23.9287 74.5767 23.9287C75.1773 23.9287 75.7119 24.0312 76.1807 24.2363C76.6494 24.4365 77.0425 24.7173 77.3599 25.0786C77.6822 25.4399 77.9263 25.8672 78.0923 26.3604C78.2583 26.8486 78.3413 27.3833 78.3413 27.9644V28.1182C78.3413 28.6943 78.2583 29.229 78.0923 29.7222C77.9263 30.2104 77.6822 30.6377 77.3599 31.0039C77.0425 31.3652 76.6519 31.646 76.188 31.8462C75.7242 32.0464 75.1919 32.1465 74.5913 32.1465C73.9908 32.1465 73.4561 32.0464 72.9873 31.8462C72.5235 31.646 72.1304 31.3652 71.8081 31.0039C71.4908 30.6377 71.2491 30.2104 71.083 29.7222C70.917 29.229 70.834 28.6943 70.834 28.1182ZM72.9434 27.9644V28.1182C72.9434 28.4502 72.9727 28.7603 73.0313 29.0483C73.0899 29.3364 73.1826 29.5903 73.3096 29.8101C73.4414 30.0249 73.6123 30.1934 73.8223 30.3154C74.0323 30.4375 74.2886 30.4985 74.5913 30.4985C74.8843 30.4985 75.1358 30.4375 75.3457 30.3154C75.5557 30.1934 75.7242 30.0249 75.8511 29.8101C75.9781 29.5903 76.0708 29.3364 76.1294 29.0483C76.1929 28.7603 76.2246 28.4502 76.2246 28.1182V27.9644C76.2246 27.6421 76.1929 27.3394 76.1294 27.0562C76.0708 26.7681 75.9756 26.5142 75.8438 26.2944C75.7168 26.0698 75.5484 25.894 75.3384 25.7671C75.1284 25.6401 74.8745 25.5767 74.5767 25.5767C74.2788 25.5767 74.0249 25.6401 73.815 25.7671C73.6099 25.894 73.4414 26.0698 73.3096 26.2944C73.1826 26.5142 73.0899 26.7681 73.0313 27.0562C72.9727 27.3394 72.9434 27.6421 72.9434 27.9644ZM84.6548 24.0752H86.5664V31.7363C86.5664 32.459 86.4053 33.0718 86.083 33.5747C85.7657 34.0825 85.3213 34.4658 84.75 34.7246C84.1787 34.9883 83.5147 35.1201 82.7578 35.1201C82.4258 35.1201 82.0742 35.0762 81.7032 34.9883C81.3369 34.9004 80.9854 34.7637 80.6485 34.5781C80.3164 34.3926 80.0381 34.1582 79.8135 33.875L80.7437 32.6299C80.9878 32.9131 81.271 33.1328 81.5933 33.2891C81.9156 33.4502 82.272 33.5308 82.6626 33.5308C83.0435 33.5308 83.3658 33.46 83.6294 33.3184C83.8931 33.1816 84.0957 32.979 84.2373 32.7104C84.3789 32.4468 84.4497 32.127 84.4497 31.751V25.9062L84.6548 24.0752ZM79.3228 28.1328V27.979C79.3228 27.3735 79.396 26.8242 79.5425 26.3311C79.6939 25.833 79.9063 25.4058 80.1797 25.0493C80.458 24.6929 80.795 24.417 81.1905 24.2217C81.586 24.0264 82.0327 23.9287 82.5308 23.9287C83.0581 23.9287 83.5 24.0264 83.8565 24.2217C84.2129 24.417 84.5059 24.6953 84.7354 25.0566C84.9649 25.4131 85.1431 25.8354 85.2701 26.3237C85.4019 26.8071 85.5044 27.3369 85.5777 27.9131V28.25C85.5044 28.8018 85.3946 29.3145 85.2481 29.7881C85.1016 30.2617 84.9087 30.6768 84.6695 31.0332C84.4302 31.3848 84.1324 31.6582 83.7759 31.8535C83.4243 32.0488 83.0044 32.1465 82.5161 32.1465C82.0279 32.1465 81.586 32.0464 81.1905 31.8462C80.7998 31.646 80.4654 31.3652 80.187 31.0039C79.9087 30.6426 79.6939 30.2178 79.5425 29.7295C79.396 29.2412 79.3228 28.709 79.3228 28.1328ZM81.4322 27.979V28.1328C81.4322 28.46 81.4639 28.7651 81.5274 29.0483C81.5909 29.3315 81.6885 29.583 81.8203 29.8027C81.9571 30.0176 82.1255 30.186 82.3257 30.3081C82.5308 30.4253 82.7725 30.4839 83.0508 30.4839C83.4366 30.4839 83.7515 30.4033 83.9956 30.2422C84.2398 30.0762 84.4229 29.8491 84.545 29.561C84.667 29.2729 84.7378 28.9409 84.7574 28.5649V27.6055C84.7476 27.2979 84.7061 27.022 84.6328 26.7778C84.5596 26.5288 84.4571 26.3164 84.3252 26.1406C84.1934 25.9648 84.0225 25.8281 83.8125 25.7305C83.6026 25.6328 83.3535 25.584 83.0655 25.584C82.7871 25.584 82.5454 25.6475 82.3404 25.7744C82.1402 25.8965 81.9717 26.0649 81.835 26.2798C81.7032 26.4946 81.6031 26.7485 81.5347 27.0415C81.4663 27.3296 81.4322 27.6421 81.4322 27.979ZM90.4336 24.0752V32H88.3169V24.0752H90.4336ZM88.1851 22.0098C88.1851 21.7021 88.2925 21.4482 88.5074 21.248C88.7222 21.0479 89.0103 20.9478 89.3716 20.9478C89.7281 20.9478 90.0137 21.0479 90.2285 21.248C90.4483 21.4482 90.5581 21.7021 90.5581 22.0098C90.5581 22.3174 90.4483 22.5713 90.2285 22.7715C90.0137 22.9717 89.7281 23.0718 89.3716 23.0718C89.0103 23.0718 88.7222 22.9717 88.5074 22.7715C88.2925 22.5713 88.1851 22.3174 88.1851 22.0098ZM94.2422 25.7671V32H92.1328V24.0752H94.1104L94.2422 25.7671ZM93.9346 27.7593H93.3633C93.3633 27.1733 93.439 26.646 93.5904 26.1772C93.7417 25.7036 93.9541 25.3008 94.2276 24.9688C94.501 24.6318 94.8257 24.3755 95.2017 24.1997C95.5826 24.019 96.0074 23.9287 96.4761 23.9287C96.8472 23.9287 97.1866 23.9824 97.4942 24.0898C97.8018 24.1973 98.0655 24.3682 98.2852 24.6025C98.5098 24.8369 98.6807 25.147 98.7979 25.5327C98.92 25.9185 98.981 26.3896 98.981 26.9463V32H96.857V26.939C96.857 26.5874 96.8081 26.314 96.7105 26.1187C96.6128 25.9233 96.4688 25.7866 96.2784 25.7085C96.0928 25.6255 95.8633 25.584 95.5899 25.584C95.3067 25.584 95.0601 25.6401 94.8501 25.7524C94.6451 25.8647 94.4742 26.021 94.3374 26.2212C94.2056 26.4165 94.1055 26.646 94.0371 26.9097C93.9688 27.1733 93.9346 27.4565 93.9346 27.7593Z" fill="white"/>
</svg>
