<svg width="110" height="33" viewBox="0 0 110 33" fill="none" xmlns="http://www.w3.org/2000/svg">
<path d="M0 0H103.5L110 7.5V33H6.5L0 25.5V7.5V0Z" fill="#0075FF"/>
<path d="M40.189 20.0576V22H33.7559V20.0576H40.189ZM34.5693 9.91406V22H32.0791V9.91406H34.5693ZM39.3506 14.8364V16.729H33.7559V14.8364H39.3506ZM40.1807 9.91406V11.8647H33.7559V9.91406H40.1807ZM43.833 14.936V22H41.4424V13.0186H43.6836L43.833 14.936ZM43.4844 17.1938H42.8369C42.8369 16.5298 42.9227 15.9321 43.0942 15.4009C43.2658 14.8641 43.5065 14.4076 43.8164 14.0312C44.1263 13.6494 44.4943 13.3589 44.9204 13.1597C45.3521 12.9549 45.8335 12.8525 46.3647 12.8525C46.7853 12.8525 47.1699 12.9134 47.5186 13.0352C47.8672 13.1569 48.166 13.3506 48.415 13.6162C48.6696 13.8818 48.8633 14.2332 48.9961 14.6704C49.1344 15.1076 49.2036 15.6416 49.2036 16.2725V22H46.7964V16.2642C46.7964 15.8657 46.741 15.5558 46.6304 15.3345C46.5197 15.1131 46.3564 14.9582 46.1406 14.8696C45.9303 14.7756 45.6702 14.7285 45.3604 14.7285C45.0394 14.7285 44.7599 14.7922 44.522 14.9194C44.2896 15.0467 44.0959 15.2238 43.9409 15.4507C43.7915 15.672 43.6781 15.9321 43.6006 16.231C43.5231 16.5298 43.4844 16.8507 43.4844 17.1938ZM55.4209 13.0186V14.7119H50.1914V13.0186H55.4209ZM51.4863 10.8022H53.877V19.2939C53.877 19.554 53.9102 19.7533 53.9766 19.8916C54.0485 20.0299 54.1536 20.1268 54.292 20.1821C54.4303 20.2319 54.6047 20.2568 54.8149 20.2568C54.9644 20.2568 55.0972 20.2513 55.2134 20.2402C55.3351 20.2236 55.4375 20.207 55.5205 20.1904L55.5288 21.9502C55.3241 22.0166 55.1027 22.0692 54.8647 22.1079C54.6268 22.1466 54.3639 22.166 54.0762 22.166C53.5505 22.166 53.0911 22.0802 52.6982 21.9087C52.3109 21.7316 52.012 21.4494 51.8018 21.062C51.5915 20.6746 51.4863 20.1655 51.4863 19.5347V10.8022ZM59.1729 14.9775V22H56.7822V13.0186H59.0317L59.1729 14.9775ZM61.8789 12.9604L61.8374 15.1768C61.7212 15.1602 61.5801 15.1463 61.4141 15.1353C61.2536 15.1187 61.1069 15.1104 60.9741 15.1104C60.6366 15.1104 60.3433 15.1546 60.0942 15.2432C59.8507 15.3262 59.646 15.4507 59.48 15.6167C59.3195 15.7827 59.1978 15.9847 59.1147 16.2227C59.0373 16.4606 58.993 16.7318 58.9819 17.0361L58.5005 16.8867C58.5005 16.3057 58.5586 15.7716 58.6748 15.2847C58.791 14.7922 58.9598 14.3633 59.1812 13.998C59.408 13.6328 59.6847 13.3506 60.0112 13.1514C60.3377 12.9521 60.7113 12.8525 61.1318 12.8525C61.2646 12.8525 61.4002 12.8636 61.5386 12.8857C61.6769 12.9023 61.7904 12.9272 61.8789 12.9604ZM67.5732 19.9746V15.9736C67.5732 15.6859 67.5262 15.4396 67.4321 15.2349C67.3381 15.0246 67.1914 14.8613 66.9922 14.7451C66.7985 14.6289 66.5467 14.5708 66.2368 14.5708C65.9712 14.5708 65.7415 14.6178 65.5479 14.7119C65.3542 14.8005 65.2048 14.9305 65.0996 15.1021C64.9945 15.2681 64.9419 15.4645 64.9419 15.6914H62.5513C62.5513 15.3096 62.6398 14.9471 62.8169 14.604C62.994 14.2609 63.2513 13.9593 63.5889 13.6992C63.9264 13.4336 64.3276 13.2261 64.7925 13.0767C65.2629 12.9272 65.7886 12.8525 66.3696 12.8525C67.0669 12.8525 67.6867 12.9688 68.229 13.2012C68.7713 13.4336 69.1974 13.7822 69.5073 14.2471C69.8228 14.7119 69.9805 15.293 69.9805 15.9902V19.8335C69.9805 20.326 70.0109 20.73 70.0718 21.0454C70.1326 21.3553 70.2212 21.6265 70.3374 21.8589V22H67.9219C67.8057 21.7565 67.7171 21.4521 67.6562 21.0869C67.6009 20.7161 67.5732 20.3454 67.5732 19.9746ZM67.8887 16.5298L67.9053 17.8828H66.5688C66.2534 17.8828 65.9795 17.9188 65.7471 17.9907C65.5146 18.0627 65.3237 18.165 65.1743 18.2979C65.0249 18.4251 64.9142 18.5745 64.8423 18.7461C64.7759 18.9176 64.7427 19.1058 64.7427 19.3105C64.7427 19.5153 64.7897 19.7007 64.8838 19.8667C64.9779 20.0272 65.1134 20.1545 65.2905 20.2485C65.4676 20.3371 65.6751 20.3813 65.9131 20.3813C66.2728 20.3813 66.5854 20.3094 66.8511 20.1655C67.1167 20.0216 67.3215 19.8446 67.4653 19.6343C67.6147 19.424 67.6922 19.2248 67.6978 19.0366L68.3286 20.0493C68.2401 20.2762 68.1183 20.5114 67.9634 20.7549C67.814 20.9984 67.623 21.228 67.3906 21.4438C67.1582 21.6541 66.8787 21.8285 66.5522 21.9668C66.2257 22.0996 65.8384 22.166 65.3901 22.166C64.8201 22.166 64.3027 22.0526 63.8379 21.8257C63.3786 21.5933 63.0133 21.2751 62.7422 20.8711C62.4766 20.4616 62.3438 19.9967 62.3438 19.4766C62.3438 19.0062 62.4323 18.5884 62.6094 18.2231C62.7865 17.8579 63.0465 17.5508 63.3896 17.3018C63.7383 17.0472 64.1727 16.8563 64.6929 16.729C65.2131 16.5962 65.8162 16.5298 66.5024 16.5298H67.8887ZM74.2139 14.9775V22H71.8232V13.0186H74.0728L74.2139 14.9775ZM76.9199 12.9604L76.8784 15.1768C76.7622 15.1602 76.6211 15.1463 76.4551 15.1353C76.2946 15.1187 76.1479 15.1104 76.0151 15.1104C75.6776 15.1104 75.3843 15.1546 75.1353 15.2432C74.8918 15.3262 74.687 15.4507 74.521 15.6167C74.3605 15.7827 74.2388 15.9847 74.1558 16.2227C74.0783 16.4606 74.034 16.7318 74.0229 17.0361L73.5415 16.8867C73.5415 16.3057 73.5996 15.7716 73.7158 15.2847C73.832 14.7922 74.0008 14.3633 74.2222 13.998C74.4491 13.6328 74.7257 13.3506 75.0522 13.1514C75.3787 12.9521 75.7523 12.8525 76.1729 12.8525C76.3057 12.8525 76.4412 12.8636 76.5796 12.8857C76.7179 12.9023 76.8314 12.9272 76.9199 12.9604Z" fill="white"/>
</svg>
