<svg width="87" height="45" viewBox="0 0 87 45" fill="none" xmlns="http://www.w3.org/2000/svg">
<path d="M0 0H87V45H10.5L0 33V0Z" fill="#0075FF"/>
<path d="M31.8076 26.2861V28H26.439V26.2861H31.8076ZM27.1494 17.3359V28H24.9521V17.3359H27.1494ZM32.5986 24.1182V23.9644C32.5986 23.3833 32.6816 22.8486 32.8477 22.3604C33.0137 21.8672 33.2554 21.4399 33.5728 21.0786C33.8901 20.7173 34.2808 20.4365 34.7446 20.2363C35.2085 20.0312 35.7407 19.9287 36.3413 19.9287C36.9419 19.9287 37.4766 20.0312 37.9453 20.2363C38.4141 20.4365 38.8071 20.7173 39.1245 21.0786C39.4468 21.4399 39.6909 21.8672 39.8569 22.3604C40.0229 22.8486 40.106 23.3833 40.106 23.9644V24.1182C40.106 24.6943 40.0229 25.229 39.8569 25.7222C39.6909 26.2104 39.4468 26.6377 39.1245 27.0039C38.8071 27.3652 38.4165 27.646 37.9526 27.8462C37.4888 28.0464 36.9565 28.1465 36.356 28.1465C35.7554 28.1465 35.2207 28.0464 34.752 27.8462C34.2881 27.646 33.895 27.3652 33.5728 27.0039C33.2554 26.6377 33.0137 26.2104 32.8477 25.7222C32.6816 25.229 32.5986 24.6943 32.5986 24.1182ZM34.708 23.9644V24.1182C34.708 24.4502 34.7373 24.7603 34.7959 25.0483C34.8545 25.3364 34.9473 25.5903 35.0742 25.8101C35.2061 26.0249 35.377 26.1934 35.5869 26.3154C35.7969 26.4375 36.0532 26.4985 36.356 26.4985C36.6489 26.4985 36.9004 26.4375 37.1104 26.3154C37.3203 26.1934 37.4888 26.0249 37.6157 25.8101C37.7427 25.5903 37.8354 25.3364 37.894 25.0483C37.9575 24.7603 37.9893 24.4502 37.9893 24.1182V23.9644C37.9893 23.6421 37.9575 23.3394 37.894 23.0562C37.8354 22.7681 37.7402 22.5142 37.6084 22.2944C37.4814 22.0698 37.313 21.894 37.103 21.7671C36.8931 21.6401 36.6392 21.5767 36.3413 21.5767C36.0435 21.5767 35.7896 21.6401 35.5796 21.7671C35.3745 21.894 35.2061 22.0698 35.0742 22.2944C34.9473 22.5142 34.8545 22.7681 34.7959 23.0562C34.7373 23.3394 34.708 23.6421 34.708 23.9644ZM46.4194 20.0752H48.3311V27.7363C48.3311 28.459 48.1699 29.0718 47.8477 29.5747C47.5303 30.0825 47.0859 30.4658 46.5146 30.7246C45.9434 30.9883 45.2793 31.1201 44.5225 31.1201C44.1904 31.1201 43.8389 31.0762 43.4678 30.9883C43.1016 30.9004 42.75 30.7637 42.4131 30.5781C42.0811 30.3926 41.8027 30.1582 41.5781 29.875L42.5083 28.6299C42.7524 28.9131 43.0356 29.1328 43.3579 29.2891C43.6802 29.4502 44.0366 29.5308 44.4272 29.5308C44.8081 29.5308 45.1304 29.46 45.394 29.3184C45.6577 29.1816 45.8604 28.979 46.002 28.7104C46.1436 28.4468 46.2144 28.127 46.2144 27.751V21.9062L46.4194 20.0752ZM41.0874 24.1328V23.979C41.0874 23.3735 41.1606 22.8242 41.3071 22.3311C41.4585 21.833 41.6709 21.4058 41.9443 21.0493C42.2227 20.6929 42.5596 20.417 42.9551 20.2217C43.3506 20.0264 43.7974 19.9287 44.2954 19.9287C44.8228 19.9287 45.2646 20.0264 45.6211 20.2217C45.9775 20.417 46.2705 20.6953 46.5 21.0566C46.7295 21.4131 46.9077 21.8354 47.0347 22.3237C47.1665 22.8071 47.269 23.3369 47.3423 23.9131V24.25C47.269 24.8018 47.1592 25.3145 47.0127 25.7881C46.8662 26.2617 46.6733 26.6768 46.4341 27.0332C46.1948 27.3848 45.897 27.6582 45.5405 27.8535C45.189 28.0488 44.769 28.1465 44.2808 28.1465C43.7925 28.1465 43.3506 28.0464 42.9551 27.8462C42.5645 27.646 42.23 27.3652 41.9517 27.0039C41.6733 26.6426 41.4585 26.2178 41.3071 25.7295C41.1606 25.2412 41.0874 24.709 41.0874 24.1328ZM43.1968 23.979V24.1328C43.1968 24.46 43.2285 24.7651 43.292 25.0483C43.3555 25.3315 43.4531 25.583 43.585 25.8027C43.7217 26.0176 43.8901 26.186 44.0903 26.3081C44.2954 26.4253 44.5371 26.4839 44.8154 26.4839C45.2012 26.4839 45.5161 26.4033 45.7603 26.2422C46.0044 26.0762 46.1875 25.8491 46.3096 25.561C46.4316 25.2729 46.5024 24.9409 46.522 24.5649V23.6055C46.5122 23.2979 46.4707 23.022 46.3975 22.7778C46.3242 22.5288 46.2217 22.3164 46.0898 22.1406C45.958 21.9648 45.7871 21.8281 45.5771 21.7305C45.3672 21.6328 45.1182 21.584 44.8301 21.584C44.5518 21.584 44.3101 21.6475 44.105 21.7744C43.9048 21.8965 43.7363 22.0649 43.5996 22.2798C43.4678 22.4946 43.3677 22.7485 43.2993 23.0415C43.231 23.3296 43.1968 23.6421 43.1968 23.979ZM52.1982 20.0752V28H50.0815V20.0752H52.1982ZM49.9497 18.0098C49.9497 17.7021 50.0571 17.4482 50.272 17.248C50.4868 17.0479 50.7749 16.9478 51.1362 16.9478C51.4927 16.9478 51.7783 17.0479 51.9932 17.248C52.2129 17.4482 52.3228 17.7021 52.3228 18.0098C52.3228 18.3174 52.2129 18.5713 51.9932 18.7715C51.7783 18.9717 51.4927 19.0718 51.1362 19.0718C50.7749 19.0718 50.4868 18.9717 50.272 18.7715C50.0571 18.5713 49.9497 18.3174 49.9497 18.0098ZM56.0068 21.7671V28H53.8975V20.0752H55.875L56.0068 21.7671ZM55.6992 23.7593H55.1279C55.1279 23.1733 55.2036 22.646 55.355 22.1772C55.5063 21.7036 55.7188 21.3008 55.9922 20.9688C56.2656 20.6318 56.5903 20.3755 56.9663 20.1997C57.3472 20.019 57.772 19.9287 58.2407 19.9287C58.6118 19.9287 58.9512 19.9824 59.2588 20.0898C59.5664 20.1973 59.8301 20.3682 60.0498 20.6025C60.2744 20.8369 60.4453 21.147 60.5625 21.5327C60.6846 21.9185 60.7456 22.3896 60.7456 22.9463V28H58.6216V22.939C58.6216 22.5874 58.5728 22.314 58.4751 22.1187C58.3774 21.9233 58.2334 21.7866 58.043 21.7085C57.8574 21.6255 57.6279 21.584 57.3545 21.584C57.0713 21.584 56.8247 21.6401 56.6147 21.7524C56.4097 21.8647 56.2388 22.021 56.1021 22.2212C55.9702 22.4165 55.8701 22.646 55.8018 22.9097C55.7334 23.1733 55.6992 23.4565 55.6992 23.7593Z" fill="white"/>
</svg>
