<svg width="100" height="100" viewBox="0 0 100 100" fill="none" xmlns="http://www.w3.org/2000/svg">
<g clip-path="url(#clip0_497_237)">
<path d="M95.3013 43.0765C97.5794 42.7284 99.1612 40.5935 98.6244 38.3523C97.3291 32.9448 95.1384 27.7814 92.134 23.0793C88.3794 17.2028 83.437 12.1767 77.6244 8.32395C71.8118 4.47116 65.2576 1.87685 58.3827 0.707709C51.5079 -0.461435 44.4645 -0.179564 37.7051 1.53521C30.9457 3.24999 24.6197 6.35975 19.1336 10.6647C13.6475 14.9697 9.12253 20.3746 5.84948 26.5323C2.57643 32.69 0.627645 39.4643 0.128333 46.4199C-0.2712 51.9856 0.264381 57.5689 1.70344 62.94C2.29984 65.166 4.70812 66.2886 6.87665 65.5087V65.5087C9.04519 64.7288 10.149 62.3416 9.58987 60.106C8.52284 55.8393 8.13611 51.4218 8.45227 47.0175C8.86824 41.2228 10.4918 35.5792 13.2185 30.4493C15.9453 25.3193 19.715 20.8165 24.2854 17.2301C28.8559 13.6436 34.126 11.0529 39.7572 9.62433C45.3884 8.19576 51.2562 7.96094 56.9836 8.93494C62.711 9.90895 68.1713 12.0702 73.0137 15.28C77.8561 18.4897 81.9736 22.6769 85.1015 27.5725C87.479 31.2935 89.2448 35.3612 90.3408 39.6205C90.915 41.8523 93.0233 43.4247 95.3013 43.0765V43.0765Z" fill="#0075FF"/>
</g>
<defs>
<clipPath id="clip0_497_237">
<rect width="100" height="100" fill="white"/>
</clipPath>
</defs>
</svg>
