<svg width="35" height="39" viewBox="0 0 35 39" fill="none" xmlns="http://www.w3.org/2000/svg">
<circle cx="17.5" cy="17.5" r="17.5" fill="#EBEBEB"/>
<circle cx="17.5" cy="10.5" r="6.5" fill="#C0C0C0"/>
<path d="M28 28.5C28 27.1211 27.7284 25.7557 27.2007 24.4818C26.6731 23.2079 25.8996 22.0504 24.9246 21.0754C23.9496 20.1004 22.7921 19.3269 21.5182 18.7993C20.2443 18.2716 18.8789 18 17.5 18C16.1211 18 14.7557 18.2716 13.4818 18.7993C12.2079 19.3269 11.0504 20.1004 10.0754 21.0754C9.10036 22.0504 8.32694 23.2079 7.79926 24.4818C7.27159 25.7557 7 27.1211 7 28.5L17.5 28.5H28Z" fill="#C0C0C0"/>
</svg>
